<mxfile host="65bd71144e">
    <diagram name="Cat" id="dj44jazqbiqKPl1LgXi8">
        <mxGraphModel dx="1003" dy="619" grid="1" gridSize="10" guides="1" tooltips="1" connect="1" arrows="1" fold="1" page="1" pageScale="1" pageWidth="827" pageHeight="1169" math="0" shadow="0">
            <root>
                <mxCell id="uAX7xuMHbxAlAN_PrPhD-0"/>
                <mxCell id="uAX7xuMHbxAlAN_PrPhD-1" parent="uAX7xuMHbxAlAN_PrPhD-0"/>
                <mxCell id="uAX7xuMHbxAlAN_PrPhD-2" value="Cat" style="swimlane;fontStyle=1;align=center;verticalAlign=top;childLayout=stackLayout;horizontal=1;startSize=26;horizontalStack=0;resizeParent=1;resizeParentMax=0;resizeLast=0;collapsible=1;marginBottom=0;" parent="uAX7xuMHbxAlAN_PrPhD-1" vertex="1">
                    <mxGeometry x="120" y="120" width="230" height="268" as="geometry"/>
                </mxCell>
                <mxCell id="uAX7xuMHbxAlAN_PrPhD-3" value="- firstName: String" style="text;strokeColor=none;fillColor=none;align=left;verticalAlign=top;spacingLeft=4;spacingRight=4;overflow=hidden;rotatable=0;points=[[0,0.5],[1,0.5]];portConstraint=eastwest;" parent="uAX7xuMHbxAlAN_PrPhD-2" vertex="1">
                    <mxGeometry y="26" width="230" height="26" as="geometry"/>
                </mxCell>
                <mxCell id="uAX7xuMHbxAlAN_PrPhD-4" value="- furColor: String" style="text;strokeColor=none;fillColor=none;align=left;verticalAlign=top;spacingLeft=4;spacingRight=4;overflow=hidden;rotatable=0;points=[[0,0.5],[1,0.5]];portConstraint=eastwest;" parent="uAX7xuMHbxAlAN_PrPhD-2" vertex="1">
                    <mxGeometry y="52" width="230" height="26" as="geometry"/>
                </mxCell>
                <mxCell id="uAX7xuMHbxAlAN_PrPhD-5" value="- age: int" style="text;strokeColor=none;fillColor=none;align=left;verticalAlign=top;spacingLeft=4;spacingRight=4;overflow=hidden;rotatable=0;points=[[0,0.5],[1,0.5]];portConstraint=eastwest;" parent="uAX7xuMHbxAlAN_PrPhD-2" vertex="1">
                    <mxGeometry y="78" width="230" height="26" as="geometry"/>
                </mxCell>
                <mxCell id="gteMITXKmZ43i2Y8Titz-0" value="- isFemale: boolean" style="text;strokeColor=none;fillColor=none;align=left;verticalAlign=top;spacingLeft=4;spacingRight=4;overflow=hidden;rotatable=0;points=[[0,0.5],[1,0.5]];portConstraint=eastwest;" parent="uAX7xuMHbxAlAN_PrPhD-2" vertex="1">
                    <mxGeometry y="104" width="230" height="26" as="geometry"/>
                </mxCell>
                <mxCell id="gteMITXKmZ43i2Y8Titz-1" value="- counter: int" style="text;strokeColor=none;fillColor=none;align=left;verticalAlign=top;spacingLeft=4;spacingRight=4;overflow=hidden;rotatable=0;points=[[0,0.5],[1,0.5]];portConstraint=eastwest;" parent="uAX7xuMHbxAlAN_PrPhD-2" vertex="1">
                    <mxGeometry y="130" width="230" height="26" as="geometry"/>
                </mxCell>
                <mxCell id="uAX7xuMHbxAlAN_PrPhD-6" value="" style="line;strokeWidth=1;fillColor=none;align=left;verticalAlign=middle;spacingTop=-1;spacingLeft=3;spacingRight=3;rotatable=0;labelPosition=right;points=[];portConstraint=eastwest;strokeColor=inherit;" parent="uAX7xuMHbxAlAN_PrPhD-2" vertex="1">
                    <mxGeometry y="156" width="230" height="8" as="geometry"/>
                </mxCell>
                <mxCell id="uAX7xuMHbxAlAN_PrPhD-7" value="+ Cat(String, String, int, boolean)" style="text;strokeColor=none;fillColor=none;align=left;verticalAlign=top;spacingLeft=4;spacingRight=4;overflow=hidden;rotatable=0;points=[[0,0.5],[1,0.5]];portConstraint=eastwest;" parent="uAX7xuMHbxAlAN_PrPhD-2" vertex="1">
                    <mxGeometry y="164" width="230" height="26" as="geometry"/>
                </mxCell>
                <mxCell id="uAX7xuMHbxAlAN_PrPhD-8" value="+ getStringAttributes(String): String" style="text;strokeColor=none;fillColor=none;align=left;verticalAlign=top;spacingLeft=4;spacingRight=4;overflow=hidden;rotatable=0;points=[[0,0.5],[1,0.5]];portConstraint=eastwest;" parent="uAX7xuMHbxAlAN_PrPhD-2" vertex="1">
                    <mxGeometry y="190" width="230" height="26" as="geometry"/>
                </mxCell>
                <mxCell id="uAX7xuMHbxAlAN_PrPhD-12" value="+ getAge(): String" style="text;strokeColor=none;fillColor=none;align=left;verticalAlign=top;spacingLeft=4;spacingRight=4;overflow=hidden;rotatable=0;points=[[0,0.5],[1,0.5]];portConstraint=eastwest;" parent="uAX7xuMHbxAlAN_PrPhD-2" vertex="1">
                    <mxGeometry y="216" width="230" height="26" as="geometry"/>
                </mxCell>
                <mxCell id="gteMITXKmZ43i2Y8Titz-2" value="- checkEscalationLevel(): String" style="text;strokeColor=none;fillColor=none;align=left;verticalAlign=top;spacingLeft=4;spacingRight=4;overflow=hidden;rotatable=0;points=[[0,0.5],[1,0.5]];portConstraint=eastwest;" parent="uAX7xuMHbxAlAN_PrPhD-2" vertex="1">
                    <mxGeometry y="242" width="230" height="26" as="geometry"/>
                </mxCell>
            </root>
        </mxGraphModel>
    </diagram>
    <diagram name="Cat_Tomcat" id="8tkZ1isLIpoLsTA-xmWn">
        <mxGraphModel dx="1003" dy="619" grid="1" gridSize="10" guides="1" tooltips="1" connect="1" arrows="1" fold="1" page="1" pageScale="1" pageWidth="827" pageHeight="1169" math="0" shadow="0">
            <root>
                <mxCell id="kbIcaemx4uACPdLj_64L-0"/>
                <mxCell id="kbIcaemx4uACPdLj_64L-1" parent="kbIcaemx4uACPdLj_64L-0"/>
                <mxCell id="kbIcaemx4uACPdLj_64L-2" value="Cat" style="swimlane;fontStyle=1;align=center;verticalAlign=top;childLayout=stackLayout;horizontal=1;startSize=26;horizontalStack=0;resizeParent=1;resizeParentMax=0;resizeLast=0;collapsible=1;marginBottom=0;" parent="kbIcaemx4uACPdLj_64L-1" vertex="1">
                    <mxGeometry x="120" y="120" width="200" height="242" as="geometry"/>
                </mxCell>
                <mxCell id="kbIcaemx4uACPdLj_64L-3" value="- firstName: String" style="text;strokeColor=none;fillColor=none;align=left;verticalAlign=top;spacingLeft=4;spacingRight=4;overflow=hidden;rotatable=0;points=[[0,0.5],[1,0.5]];portConstraint=eastwest;" parent="kbIcaemx4uACPdLj_64L-2" vertex="1">
                    <mxGeometry y="26" width="200" height="26" as="geometry"/>
                </mxCell>
                <mxCell id="kbIcaemx4uACPdLj_64L-4" value="- furColor: String" style="text;strokeColor=none;fillColor=none;align=left;verticalAlign=top;spacingLeft=4;spacingRight=4;overflow=hidden;rotatable=0;points=[[0,0.5],[1,0.5]];portConstraint=eastwest;" parent="kbIcaemx4uACPdLj_64L-2" vertex="1">
                    <mxGeometry y="52" width="200" height="26" as="geometry"/>
                </mxCell>
                <mxCell id="kbIcaemx4uACPdLj_64L-5" value="- age: int" style="text;strokeColor=none;fillColor=none;align=left;verticalAlign=top;spacingLeft=4;spacingRight=4;overflow=hidden;rotatable=0;points=[[0,0.5],[1,0.5]];portConstraint=eastwest;" parent="kbIcaemx4uACPdLj_64L-2" vertex="1">
                    <mxGeometry y="78" width="200" height="26" as="geometry"/>
                </mxCell>
                <mxCell id="kbIcaemx4uACPdLj_64L-7" value="- counter: int" style="text;strokeColor=none;fillColor=none;align=left;verticalAlign=top;spacingLeft=4;spacingRight=4;overflow=hidden;rotatable=0;points=[[0,0.5],[1,0.5]];portConstraint=eastwest;" parent="kbIcaemx4uACPdLj_64L-2" vertex="1">
                    <mxGeometry y="104" width="200" height="26" as="geometry"/>
                </mxCell>
                <mxCell id="kbIcaemx4uACPdLj_64L-8" value="" style="line;strokeWidth=1;fillColor=none;align=left;verticalAlign=middle;spacingTop=-1;spacingLeft=3;spacingRight=3;rotatable=0;labelPosition=right;points=[];portConstraint=eastwest;strokeColor=inherit;" parent="kbIcaemx4uACPdLj_64L-2" vertex="1">
                    <mxGeometry y="130" width="200" height="8" as="geometry"/>
                </mxCell>
                <mxCell id="kbIcaemx4uACPdLj_64L-9" value="+ Cat(String, String, int)" style="text;strokeColor=none;fillColor=none;align=left;verticalAlign=top;spacingLeft=4;spacingRight=4;overflow=hidden;rotatable=0;points=[[0,0.5],[1,0.5]];portConstraint=eastwest;" parent="kbIcaemx4uACPdLj_64L-2" vertex="1">
                    <mxGeometry y="138" width="200" height="26" as="geometry"/>
                </mxCell>
                <mxCell id="kbIcaemx4uACPdLj_64L-10" value="+ getStringAttributes(String): String" style="text;strokeColor=none;fillColor=none;align=left;verticalAlign=top;spacingLeft=4;spacingRight=4;overflow=hidden;rotatable=0;points=[[0,0.5],[1,0.5]];portConstraint=eastwest;" parent="kbIcaemx4uACPdLj_64L-2" vertex="1">
                    <mxGeometry y="164" width="200" height="26" as="geometry"/>
                </mxCell>
                <mxCell id="kbIcaemx4uACPdLj_64L-11" value="+ getAge(): String" style="text;strokeColor=none;fillColor=none;align=left;verticalAlign=top;spacingLeft=4;spacingRight=4;overflow=hidden;rotatable=0;points=[[0,0.5],[1,0.5]];portConstraint=eastwest;" parent="kbIcaemx4uACPdLj_64L-2" vertex="1">
                    <mxGeometry y="190" width="200" height="26" as="geometry"/>
                </mxCell>
                <mxCell id="kbIcaemx4uACPdLj_64L-12" value="- checkEscalationLevel(): String" style="text;strokeColor=none;fillColor=none;align=left;verticalAlign=top;spacingLeft=4;spacingRight=4;overflow=hidden;rotatable=0;points=[[0,0.5],[1,0.5]];portConstraint=eastwest;" parent="kbIcaemx4uACPdLj_64L-2" vertex="1">
                    <mxGeometry y="216" width="200" height="26" as="geometry"/>
                </mxCell>
                <mxCell id="dJNgdf4us9qg2-SgxDfR-0" value="Tomcat" style="swimlane;fontStyle=1;align=center;verticalAlign=top;childLayout=stackLayout;horizontal=1;startSize=26;horizontalStack=0;resizeParent=1;resizeParentMax=0;resizeLast=0;collapsible=1;marginBottom=0;" parent="kbIcaemx4uACPdLj_64L-1" vertex="1">
                    <mxGeometry x="400" y="120" width="200" height="190" as="geometry"/>
                </mxCell>
                <mxCell id="dJNgdf4us9qg2-SgxDfR-1" value="- firstName: String" style="text;strokeColor=none;fillColor=none;align=left;verticalAlign=top;spacingLeft=4;spacingRight=4;overflow=hidden;rotatable=0;points=[[0,0.5],[1,0.5]];portConstraint=eastwest;" parent="dJNgdf4us9qg2-SgxDfR-0" vertex="1">
                    <mxGeometry y="26" width="200" height="26" as="geometry"/>
                </mxCell>
                <mxCell id="dJNgdf4us9qg2-SgxDfR-2" value="- furColor: String" style="text;strokeColor=none;fillColor=none;align=left;verticalAlign=top;spacingLeft=4;spacingRight=4;overflow=hidden;rotatable=0;points=[[0,0.5],[1,0.5]];portConstraint=eastwest;" parent="dJNgdf4us9qg2-SgxDfR-0" vertex="1">
                    <mxGeometry y="52" width="200" height="26" as="geometry"/>
                </mxCell>
                <mxCell id="dJNgdf4us9qg2-SgxDfR-3" value="- age: int" style="text;strokeColor=none;fillColor=none;align=left;verticalAlign=top;spacingLeft=4;spacingRight=4;overflow=hidden;rotatable=0;points=[[0,0.5],[1,0.5]];portConstraint=eastwest;" parent="dJNgdf4us9qg2-SgxDfR-0" vertex="1">
                    <mxGeometry y="78" width="200" height="26" as="geometry"/>
                </mxCell>
                <mxCell id="dJNgdf4us9qg2-SgxDfR-6" value="" style="line;strokeWidth=1;fillColor=none;align=left;verticalAlign=middle;spacingTop=-1;spacingLeft=3;spacingRight=3;rotatable=0;labelPosition=right;points=[];portConstraint=eastwest;strokeColor=inherit;" parent="dJNgdf4us9qg2-SgxDfR-0" vertex="1">
                    <mxGeometry y="104" width="200" height="8" as="geometry"/>
                </mxCell>
                <mxCell id="dJNgdf4us9qg2-SgxDfR-7" value="+ Tomcat(String, String, int)" style="text;strokeColor=none;fillColor=none;align=left;verticalAlign=top;spacingLeft=4;spacingRight=4;overflow=hidden;rotatable=0;points=[[0,0.5],[1,0.5]];portConstraint=eastwest;" parent="dJNgdf4us9qg2-SgxDfR-0" vertex="1">
                    <mxGeometry y="112" width="200" height="26" as="geometry"/>
                </mxCell>
                <mxCell id="dJNgdf4us9qg2-SgxDfR-8" value="+ getStringAttributes(String): String" style="text;strokeColor=none;fillColor=none;align=left;verticalAlign=top;spacingLeft=4;spacingRight=4;overflow=hidden;rotatable=0;points=[[0,0.5],[1,0.5]];portConstraint=eastwest;" parent="dJNgdf4us9qg2-SgxDfR-0" vertex="1">
                    <mxGeometry y="138" width="200" height="26" as="geometry"/>
                </mxCell>
                <mxCell id="dJNgdf4us9qg2-SgxDfR-9" value="+ getAge(): String" style="text;strokeColor=none;fillColor=none;align=left;verticalAlign=top;spacingLeft=4;spacingRight=4;overflow=hidden;rotatable=0;points=[[0,0.5],[1,0.5]];portConstraint=eastwest;" parent="dJNgdf4us9qg2-SgxDfR-0" vertex="1">
                    <mxGeometry y="164" width="200" height="26" as="geometry"/>
                </mxCell>
            </root>
        </mxGraphModel>
    </diagram>
    <diagram name="Supercat" id="QJZ5W6fXiEepRF8YSDwm">
        <mxGraphModel dx="1003" dy="1788" grid="1" gridSize="10" guides="1" tooltips="1" connect="1" arrows="1" fold="1" page="1" pageScale="1" pageWidth="827" pageHeight="1169" math="0" shadow="0">
            <root>
                <mxCell id="nfyTWqL0yT7ddW6m0Q75-0"/>
                <mxCell id="nfyTWqL0yT7ddW6m0Q75-1" parent="nfyTWqL0yT7ddW6m0Q75-0"/>
                <mxCell id="nfyTWqL0yT7ddW6m0Q75-2" value="Cat" style="swimlane;fontStyle=1;align=center;verticalAlign=top;childLayout=stackLayout;horizontal=1;startSize=26;horizontalStack=0;resizeParent=1;resizeParentMax=0;resizeLast=0;collapsible=1;marginBottom=0;" vertex="1" parent="nfyTWqL0yT7ddW6m0Q75-1">
                    <mxGeometry x="120" y="160" width="200" height="138" as="geometry"/>
                </mxCell>
                <mxCell id="nfyTWqL0yT7ddW6m0Q75-6" value="- counter: int" style="text;strokeColor=none;fillColor=none;align=left;verticalAlign=top;spacingLeft=4;spacingRight=4;overflow=hidden;rotatable=0;points=[[0,0.5],[1,0.5]];portConstraint=eastwest;" vertex="1" parent="nfyTWqL0yT7ddW6m0Q75-2">
                    <mxGeometry y="26" width="200" height="26" as="geometry"/>
                </mxCell>
                <mxCell id="nfyTWqL0yT7ddW6m0Q75-7" value="" style="line;strokeWidth=1;fillColor=none;align=left;verticalAlign=middle;spacingTop=-1;spacingLeft=3;spacingRight=3;rotatable=0;labelPosition=right;points=[];portConstraint=eastwest;strokeColor=inherit;" vertex="1" parent="nfyTWqL0yT7ddW6m0Q75-2">
                    <mxGeometry y="52" width="200" height="8" as="geometry"/>
                </mxCell>
                <mxCell id="nfyTWqL0yT7ddW6m0Q75-8" value="+ Cat(String, String, int)" style="text;strokeColor=none;fillColor=none;align=left;verticalAlign=top;spacingLeft=4;spacingRight=4;overflow=hidden;rotatable=0;points=[[0,0.5],[1,0.5]];portConstraint=eastwest;" vertex="1" parent="nfyTWqL0yT7ddW6m0Q75-2">
                    <mxGeometry y="60" width="200" height="26" as="geometry"/>
                </mxCell>
                <mxCell id="nfyTWqL0yT7ddW6m0Q75-10" value="+ getAge(): String" style="text;strokeColor=none;fillColor=none;align=left;verticalAlign=top;spacingLeft=4;spacingRight=4;overflow=hidden;rotatable=0;points=[[0,0.5],[1,0.5]];portConstraint=eastwest;" vertex="1" parent="nfyTWqL0yT7ddW6m0Q75-2">
                    <mxGeometry y="86" width="200" height="26" as="geometry"/>
                </mxCell>
                <mxCell id="nfyTWqL0yT7ddW6m0Q75-11" value="- checkEscalationLevel(): String" style="text;strokeColor=none;fillColor=none;align=left;verticalAlign=top;spacingLeft=4;spacingRight=4;overflow=hidden;rotatable=0;points=[[0,0.5],[1,0.5]];portConstraint=eastwest;" vertex="1" parent="nfyTWqL0yT7ddW6m0Q75-2">
                    <mxGeometry y="112" width="200" height="26" as="geometry"/>
                </mxCell>
                <mxCell id="nfyTWqL0yT7ddW6m0Q75-12" value="Tomcat" style="swimlane;fontStyle=1;align=center;verticalAlign=top;childLayout=stackLayout;horizontal=1;startSize=26;horizontalStack=0;resizeParent=1;resizeParentMax=0;resizeLast=0;collapsible=1;marginBottom=0;" vertex="1" parent="nfyTWqL0yT7ddW6m0Q75-1">
                    <mxGeometry x="400" y="160" width="160" height="86" as="geometry"/>
                </mxCell>
                <mxCell id="nfyTWqL0yT7ddW6m0Q75-16" value="" style="line;strokeWidth=1;fillColor=none;align=left;verticalAlign=middle;spacingTop=-1;spacingLeft=3;spacingRight=3;rotatable=0;labelPosition=right;points=[];portConstraint=eastwest;strokeColor=inherit;" vertex="1" parent="nfyTWqL0yT7ddW6m0Q75-12">
                    <mxGeometry y="26" width="160" height="8" as="geometry"/>
                </mxCell>
                <mxCell id="nfyTWqL0yT7ddW6m0Q75-17" value="+ Tomcat(String, String, int)" style="text;strokeColor=none;fillColor=none;align=left;verticalAlign=top;spacingLeft=4;spacingRight=4;overflow=hidden;rotatable=0;points=[[0,0.5],[1,0.5]];portConstraint=eastwest;" vertex="1" parent="nfyTWqL0yT7ddW6m0Q75-12">
                    <mxGeometry y="34" width="160" height="26" as="geometry"/>
                </mxCell>
                <mxCell id="nfyTWqL0yT7ddW6m0Q75-19" value="+ getAge(): String" style="text;strokeColor=none;fillColor=none;align=left;verticalAlign=top;spacingLeft=4;spacingRight=4;overflow=hidden;rotatable=0;points=[[0,0.5],[1,0.5]];portConstraint=eastwest;" vertex="1" parent="nfyTWqL0yT7ddW6m0Q75-12">
                    <mxGeometry y="60" width="160" height="26" as="geometry"/>
                </mxCell>
                <mxCell id="aCBT3UtCvxl01SDc2i3n-0" value="SuperCat" style="swimlane;fontStyle=1;align=center;verticalAlign=top;childLayout=stackLayout;horizontal=1;startSize=26;horizontalStack=0;resizeParent=1;resizeParentMax=0;resizeLast=0;collapsible=1;marginBottom=0;" vertex="1" parent="nfyTWqL0yT7ddW6m0Q75-1">
                    <mxGeometry x="260" y="-80" width="200" height="164" as="geometry"/>
                </mxCell>
                <mxCell id="aCBT3UtCvxl01SDc2i3n-1" value="- firstName: String" style="text;strokeColor=none;fillColor=none;align=left;verticalAlign=top;spacingLeft=4;spacingRight=4;overflow=hidden;rotatable=0;points=[[0,0.5],[1,0.5]];portConstraint=eastwest;" vertex="1" parent="aCBT3UtCvxl01SDc2i3n-0">
                    <mxGeometry y="26" width="200" height="26" as="geometry"/>
                </mxCell>
                <mxCell id="aCBT3UtCvxl01SDc2i3n-2" value="- furColor: String" style="text;strokeColor=none;fillColor=none;align=left;verticalAlign=top;spacingLeft=4;spacingRight=4;overflow=hidden;rotatable=0;points=[[0,0.5],[1,0.5]];portConstraint=eastwest;" vertex="1" parent="aCBT3UtCvxl01SDc2i3n-0">
                    <mxGeometry y="52" width="200" height="26" as="geometry"/>
                </mxCell>
                <mxCell id="aCBT3UtCvxl01SDc2i3n-3" value="- age: int" style="text;strokeColor=none;fillColor=none;align=left;verticalAlign=top;spacingLeft=4;spacingRight=4;overflow=hidden;rotatable=0;points=[[0,0.5],[1,0.5]];portConstraint=eastwest;" vertex="1" parent="aCBT3UtCvxl01SDc2i3n-0">
                    <mxGeometry y="78" width="200" height="26" as="geometry"/>
                </mxCell>
                <mxCell id="aCBT3UtCvxl01SDc2i3n-4" value="" style="line;strokeWidth=1;fillColor=none;align=left;verticalAlign=middle;spacingTop=-1;spacingLeft=3;spacingRight=3;rotatable=0;labelPosition=right;points=[];portConstraint=eastwest;strokeColor=inherit;" vertex="1" parent="aCBT3UtCvxl01SDc2i3n-0">
                    <mxGeometry y="104" width="200" height="8" as="geometry"/>
                </mxCell>
                <mxCell id="aCBT3UtCvxl01SDc2i3n-5" value="+ SuperCat(String, String, int)" style="text;strokeColor=none;fillColor=none;align=left;verticalAlign=top;spacingLeft=4;spacingRight=4;overflow=hidden;rotatable=0;points=[[0,0.5],[1,0.5]];portConstraint=eastwest;" vertex="1" parent="aCBT3UtCvxl01SDc2i3n-0">
                    <mxGeometry y="112" width="200" height="26" as="geometry"/>
                </mxCell>
                <mxCell id="aCBT3UtCvxl01SDc2i3n-6" value="+ getStringAttributes(String): String" style="text;strokeColor=none;fillColor=none;align=left;verticalAlign=top;spacingLeft=4;spacingRight=4;overflow=hidden;rotatable=0;points=[[0,0.5],[1,0.5]];portConstraint=eastwest;" vertex="1" parent="aCBT3UtCvxl01SDc2i3n-0">
                    <mxGeometry y="138" width="200" height="26" as="geometry"/>
                </mxCell>
                <mxCell id="aCBT3UtCvxl01SDc2i3n-10" value="Extends" style="endArrow=block;endSize=16;endFill=0;html=1;exitX=0.5;exitY=0;exitDx=0;exitDy=0;entryX=0.295;entryY=1.077;entryDx=0;entryDy=0;entryPerimeter=0;" edge="1" parent="nfyTWqL0yT7ddW6m0Q75-1" source="nfyTWqL0yT7ddW6m0Q75-2" target="aCBT3UtCvxl01SDc2i3n-6">
                    <mxGeometry width="160" relative="1" as="geometry">
                        <mxPoint x="410" y="70" as="sourcePoint"/>
                        <mxPoint x="367" y="84" as="targetPoint"/>
                    </mxGeometry>
                </mxCell>
                <mxCell id="aCBT3UtCvxl01SDc2i3n-11" value="Extends" style="endArrow=block;endSize=16;endFill=0;html=1;exitX=0.5;exitY=0;exitDx=0;exitDy=0;entryX=0.708;entryY=1.109;entryDx=0;entryDy=0;entryPerimeter=0;" edge="1" parent="nfyTWqL0yT7ddW6m0Q75-1" source="nfyTWqL0yT7ddW6m0Q75-12" target="aCBT3UtCvxl01SDc2i3n-6">
                    <mxGeometry width="160" relative="1" as="geometry">
                        <mxPoint x="410" y="70" as="sourcePoint"/>
                        <mxPoint x="570" y="70" as="targetPoint"/>
                    </mxGeometry>
                </mxCell>
            </root>
        </mxGraphModel>
    </diagram>
</mxfile>